<svg xmlns="http://www.w3.org/2000/svg" width="144" height="144" viewBox="0 0 144 144">
<g transform="translate(0.826,0.000) scale(0.11803)">
<g transform="translate(0.000000,1220.000000) scale(0.100000,-0.100000)"
fill="#0A66E0" stroke="none">
<path d="M5030 12194 c-41 -2 -257 -11 -480 -19 -1400 -54 -2606 -194 -3026
-351 -529 -197 -954 -644 -1133 -1189 -76 -233 -156 -741 -240 -1520 -146
-1351 -187 -2846 -121 -4425 45 -1060 194 -2406 324 -2911 70 -272 186 -513
355 -734 68 -90 245 -268 341 -345 230 -183 490 -304 800 -374 649 -144 1926
-264 3270 -306 421 -13 1454 -13 1920 0 356 10 1010 41 1260 60 1002 75 1774
178 2148 286 543 157 999 592 1198 1142 83 228 158 654 238 1352 129 1117 171
1939 170 3315 0 842 -9 1210 -44 1790 -68 1107 -204 2224 -318 2615 -170 576
-640 1084 -1167 1259 -415 137 -1470 265 -2650 321 -126 6 -327 15 -445 21
-198 10 -2230 20 -2400 13z"/>
</g>
<g transform="translate(0.000000,1220.000000) scale(0.100000,-0.100000)"
fill="#FFFFFF" stroke="none">
<path d="M5404 10160 c-11 -4 -33 -22 -47 -40 -21 -25 -27 -42 -27 -78 1 -26
6 -57 13 -68 7 -12 90 -104 185 -204 l172 -183 0 -236 -1 -236 -90 92 c-102
105 -113 113 -164 113 -92 0 -152 -89 -118 -177 9 -25 250 -289 366 -400 96
-93 107 -94 193 -11 l64 61 0 454 0 454 -72 77 c-271 289 -346 366 -370 378
-30 15 -72 17 -104 4z"/>
<path d="M6619 10161 c-24 -8 -94 -77 -332 -330 l-117 -124 0 -456 0 -456 59
-62 c89 -96 97 -94 244 59 257 267 315 335 322 371 20 103 -53 173 -159 153
-27 -5 -54 -27 -122 -101 -47 -52 -90 -95 -95 -95 -5 0 -9 104 -9 230 l0 230
181 193 c100 105 185 202 190 215 20 52 4 116 -38 154 -22 20 -88 30 -124 19z"/>
<path d="M9331 9153 l3 -98 -39 0 c-45 0 -44 7 -21 -110 9 -44 16 -81 16 -82
0 -2 -20 -3 -45 -3 l-45 0 0 -394 0 -394 -62 -58 -63 -58 -3 32 c-4 39 -32 56
-76 48 l-31 -6 3 -74 4 -75 -49 -3 -48 -3 -3 -157 c-4 -216 12 -248 119 -248
51 0 92 21 107 55 7 15 12 74 12 144 0 130 7 147 58 143 27 -2 47 13 343 254
56 45 74 65 68 75 -5 8 -9 40 -9 72 0 56 -1 57 -25 53 -14 -3 -44 -21 -67 -40
-22 -19 -45 -33 -49 -30 -5 3 -9 149 -9 325 l0 319 23 0 c32 0 42 11 42 45 0
28 2 30 40 30 l40 0 0 70 0 70 -43 1 c-23 0 -47 5 -52 10 -5 5 -10 47 -12 94
l-3 85 -63 3 -64 3 3 -98z"/>
<path d="M3070 9161 c0 -107 -2 -111 -61 -111 l-49 0 0 -95 0 -95 -50 0 -50 0
0 -346 c0 -216 -4 -344 -10 -342 -5 2 -41 31 -79 66 -38 34 -76 62 -83 62 -7
0 -22 6 -33 14 -19 13 -20 12 -17 -35 4 -44 1 -50 -20 -58 -22 -9 -17 -15 92
-122 210 -206 296 -279 328 -279 16 0 41 -9 56 -21 25 -20 26 -23 26 -140 0
-124 11 -170 45 -183 9 -3 41 -6 72 -6 47 0 59 4 84 29 l29 29 0 176 c0 169
-1 176 -20 176 -11 0 -20 4 -20 10 0 5 9 32 20 60 11 28 20 57 20 65 0 7 -9
17 -20 20 -11 3 -20 13 -20 21 0 19 -19 18 -56 -5 -26 -16 -32 -27 -38 -70 -4
-28 -10 -51 -14 -51 -4 0 -33 26 -65 58 l-57 58 2 394 3 395 40 5 c37 5 40 8
43 38 3 29 6 32 37 32 60 0 65 6 65 77 l0 65 -40 -4 -40 -4 0 98 0 98 -60 0
-60 0 0 -79z"/>
<path d="M4724 8671 c-11 -5 -33 -23 -47 -41 -30 -35 -37 -102 -16 -143 6 -12
80 -92 165 -177 l154 -155 -410 -410 -410 -410 -152 152 c-179 176 -203 190
-282 155 -56 -25 -81 -72 -73 -136 5 -36 26 -60 219 -253 117 -118 225 -221
240 -229 15 -8 42 -14 60 -14 29 0 68 36 423 389 214 213 463 460 553 547 162
159 162 159 162 204 l0 44 -238 239 c-231 232 -240 239 -283 243 -24 2 -53 0
-65 -5z"/>
<path d="M7285 8666 c-16 -8 -132 -117 -257 -243 l-228 -229 0 -44 0 -45 546
-540 c344 -340 557 -543 575 -549 17 -5 41 -5 59 0 18 6 113 90 245 218 229
223 245 244 231 319 -10 54 -64 97 -122 97 -25 0 -55 -5 -67 -11 -12 -6 -88
-77 -170 -157 l-147 -147 -410 410 -410 410 159 160 c185 186 198 209 163 289
-31 68 -98 93 -167 62z"/>
<path d="M7668 8151 c-99 -100 -138 -146 -138 -163 0 -16 21 -45 64 -87 54
-53 68 -63 89 -57 33 8 267 251 268 279 1 12 0 31 -1 42 -2 28 -100 125 -125
125 -13 0 -70 -51 -157 -139z"/>
<path d="M4215 8227 c-44 -40 -50 -48 -50 -86 0 -40 6 -46 130 -171 71 -72
137 -130 145 -130 24 0 140 122 140 147 0 14 -43 66 -122 148 -151 155 -166
161 -243 92z"/>
<path d="M5880 8135 l0 -135 -135 0 -134 0 -3 -142 -3 -143 -135 -5 -135 -5
-3 -135 c-2 -92 -6 -137 -15 -142 -7 -5 -66 -8 -132 -7 l-120 1 -5 -138 -5
-139 -132 -3 -133 -3 0 -123 c0 -69 -3 -131 -6 -140 -5 -14 -27 -16 -140 -16
l-133 0 -3 -137 -3 -138 -130 -5 -130 -5 -5 -135 -5 -135 -122 -3 -123 -3 0
-179 0 -180 125 0 124 0 3 -137 3 -138 133 -3 132 -3 0 -133 0 -134 128 -7
c70 -3 133 -8 140 -10 9 -3 12 -39 12 -135 l0 -130 98 0 c53 0 114 -3 135 -6
l37 -7 0 -133 0 -134 123 0 c67 0 127 -4 134 -8 9 -5 13 -50 15 -142 l3 -135
135 -5 135 -5 5 -147 c3 -80 8 -149 11 -152 3 -3 62 -9 132 -12 l127 -7 0
-119 0 -118 175 0 174 0 3 133 3 132 135 5 135 5 5 140 5 140 131 3 132 3 4
132 c2 73 7 138 11 145 6 8 45 12 138 12 l129 0 0 134 c0 158 -13 146 158 146
l112 0 0 129 c0 72 4 132 8 135 5 3 65 8 135 12 l127 7 1 113 c1 63 3 119 4
124 1 6 3 15 4 20 1 6 50 10 126 10 125 0 125 0 135 26 6 14 10 77 10 140 l0
114 125 0 125 0 0 180 0 180 -124 0 c-90 0 -125 3 -129 13 -2 6 -5 68 -5 137
l-1 125 -133 5 -133 5 -3 137 -3 137 -132 3 -132 3 -3 137 -3 137 -132 3 -132
3 -3 138 -3 137 -129 0 c-118 0 -130 2 -140 19 -5 11 -10 76 -10 145 l0 125
-132 3 -133 3 -5 140 -5 140 -135 5 -135 5 -3 133 -3 132 -174 0 -175 0 0
-135z m340 -570 l5 -140 138 -3 137 -3 0 -139 0 -140 129 0 c99 0 131 -3 140
-14 8 -9 12 -44 11 -88 -1 -40 -1 -96 -1 -124 l1 -51 127 -7 c70 -4 130 -9
132 -12 2 -2 3 -32 2 -66 -1 -35 1 -95 5 -135 l6 -72 132 -3 131 -3 3 -137 3
-137 132 -3 132 -3 0 -160 0 -160 -132 -3 -132 -3 -3 -137 -3 -137 -130 -3
c-73 -1 -132 -7 -135 -13 -4 -5 -7 -66 -8 -135 -1 -69 -4 -129 -7 -134 -4 -6
-62 -10 -131 -10 l-124 0 0 -127 c0 -71 -4 -133 -8 -140 -5 -8 -49 -13 -137
-15 l-130 -3 -3 -137 -3 -137 -137 -3 -137 -3 -3 -143 -3 -142 -162 2 -162 3
-3 137 -3 136 -62 6 c-34 3 -92 5 -129 4 -37 -1 -70 0 -72 3 -2 2 -6 65 -8
139 l-3 135 -130 3 c-88 2 -132 7 -137 15 -4 7 -8 69 -8 139 l0 127 -132 3
-133 3 -3 143 -3 142 -134 0 -134 0 -3 138 -3 137 -135 5 -135 5 -3 149 c-2
101 1 153 9 162 9 11 43 14 140 14 l128 0 3 138 3 137 133 3 132 3 0 134 c0
96 4 136 13 142 10 7 60 10 230 13 l27 0 0 129 c0 94 4 131 13 139 8 7 67 13
138 14 l124 3 3 137 3 137 132 3 132 3 3 130 c1 72 4 136 7 143 3 10 42 12
162 10 l158 -3 5 -140z"/>
<path d="M3110 6859 c-39 -16 -59 -39 -71 -81 -18 -67 -4 -95 94 -195 l91 -93
-261 0 -262 0 -138 145 c-91 96 -148 149 -170 156 -43 14 -90 -1 -129 -42 -25
-26 -29 -38 -28 -84 0 -51 3 -57 60 -121 32 -38 111 -122 175 -189 l117 -120
462 -3 463 -3 63 64 c56 56 64 68 64 102 0 35 -9 47 -99 139 -54 56 -143 148
-197 205 -120 126 -163 148 -234 120z"/>
<path d="M8905 6856 c-36 -16 -413 -400 -427 -435 -16 -42 0 -74 67 -134 l64
-57 448 1 c246 0 456 4 466 7 9 4 91 88 182 187 171 187 185 209 170 274 -8
36 -62 87 -103 96 -54 11 -92 -16 -228 -163 l-129 -141 -260 0 -260 -1 94 94
c89 89 94 97 98 143 5 58 -10 89 -56 120 -38 26 -81 29 -126 9z"/>
<path d="M2528 5933 c-125 -121 -287 -301 -294 -327 -17 -69 33 -147 101 -160
40 -8 101 8 112 29 5 7 66 73 137 145 l129 131 249 -2 c136 -1 250 -4 252 -8
2 -3 -37 -50 -87 -105 -88 -94 -91 -99 -91 -146 -1 -58 23 -96 78 -124 35 -17
42 -17 81 -5 36 12 75 48 232 213 103 109 193 208 200 220 27 47 16 76 -50
143 l-64 63 -457 0 -458 0 -70 -67z"/>
<path d="M8547 5943 c-65 -60 -75 -74 -76 -110 -1 -27 31 -65 235 -278 191
-199 223 -220 297 -194 57 20 82 58 82 125 l0 54 -94 94 c-52 53 -91 99 -87
103 4 4 119 8 254 8 l247 -1 144 -147 c156 -158 176 -170 245 -147 43 14 73
50 82 96 13 69 2 85 -233 327 l-124 127 -455 0 -454 0 -63 -57z"/>
<path d="M3937 5058 c-246 -253 -278 -290 -284 -336 -11 -82 45 -142 134 -142
l48 -1 163 168 163 168 414 -418 c228 -230 415 -420 415 -423 0 -4 -72 -81
-160 -173 -87 -92 -164 -180 -170 -195 -39 -103 46 -204 149 -176 29 8 80 56
261 245 124 130 231 249 237 265 28 66 28 67 -436 534 -240 241 -489 487 -553
547 -115 107 -118 109 -165 109 l-48 1 -168 -173z"/>
<path d="M7895 5220 c-11 -4 -261 -250 -556 -546 -573 -576 -565 -567 -536
-635 8 -19 117 -139 241 -266 188 -192 234 -234 266 -243 98 -26 186 77 147
172 -8 20 -85 108 -176 200 -89 91 -161 169 -161 174 0 5 186 194 413 422
l412 413 150 -156 c162 -168 195 -190 262 -174 72 16 117 93 94 161 -8 23 -82
106 -234 262 -218 223 -223 227 -262 226 -22 -1 -49 -5 -60 -10z"/>
<path d="M3174 4780 c-45 -18 -54 -46 -54 -175 0 -114 -1 -123 -23 -143 -13
-12 -36 -22 -53 -22 -29 0 -32 -3 -314 -260 -41 -38 -86 -77 -100 -88 -20 -17
-23 -23 -12 -33 6 -7 12 -33 12 -59 0 -49 13 -80 24 -61 4 6 14 11 22 11 8 0
50 29 92 64 42 36 80 62 84 60 4 -3 8 -155 8 -339 l0 -334 48 -3 47 -3 3 -88
3 -88 47 2 47 3 3 -77 3 -77 59 0 c69 0 74 7 68 98 l-3 57 38 3 c37 3 37 4 37
48 l0 44 -44 0 c-43 0 -45 1 -48 33 -3 27 -7 32 -33 35 -16 2 -36 8 -42 14
-10 8 -13 103 -13 412 l0 401 49 43 c28 23 54 42 60 42 5 0 11 -24 13 -52 l3
-53 43 -6 c24 -3 45 -2 48 3 3 4 14 8 25 8 10 0 19 1 19 3 0 2 -11 37 -25 77
-14 40 -25 75 -25 77 0 2 14 3 30 3 l30 0 0 186 0 186 -29 29 c-25 24 -37 29
-78 28 -26 0 -58 -4 -69 -9z"/>
<path d="M8904 4774 c-49 -24 -54 -47 -54 -239 l0 -175 46 0 46 0 -7 -79 -7
-78 32 -7 c18 -3 45 -6 61 -6 27 0 28 3 31 50 l3 50 73 -69 72 -69 0 -384 0
-384 34 4 c18 2 37 -1 40 -7 6 -9 -14 -102 -31 -147 -5 -15 -1 -16 34 -11 22
4 42 5 45 2 2 -3 -3 -35 -13 -72 -9 -38 -15 -71 -12 -75 2 -5 31 -8 63 -8 l58
0 11 50 c6 28 11 62 11 75 0 23 10 30 34 26 5 -1 26 1 45 4 34 6 36 8 39 50
l3 45 -46 0 c-43 0 -45 1 -45 29 0 22 -6 30 -25 35 l-25 6 0 309 c0 169 3 311
7 315 4 3 21 -8 40 -26 18 -17 48 -37 68 -44 l35 -12 0 59 c0 47 3 59 16 59
24 0 14 13 -61 79 -78 69 -68 60 -225 205 -85 80 -119 106 -134 102 -11 -3
-32 4 -48 15 l-28 20 0 126 0 125 -34 34 c-28 28 -41 34 -77 34 -24 0 -58 -7
-75 -16z"/>
<path d="M4298 4293 c-161 -163 -165 -175 -92 -253 40 -43 52 -50 85 -50 37 0
47 8 164 128 75 77 125 135 125 147 0 27 -117 145 -145 145 -13 0 -62 -43
-137 -117z"/>
<path d="M7592 4347 c-35 -35 -62 -71 -62 -83 0 -12 48 -68 128 -147 118 -116
132 -127 166 -127 29 0 46 8 81 41 41 37 45 46 45 87 0 44 -2 47 -122 169 -93
94 -128 123 -148 123 -18 0 -43 -18 -88 -63z"/>
<path d="M5557 3369 c-115 -118 -216 -227 -224 -243 -22 -41 -13 -119 17 -151
13 -13 39 -30 58 -36 61 -20 99 0 191 101 46 49 87 90 92 90 5 0 9 -99 9 -234
l0 -234 -177 -182 c-98 -100 -181 -189 -185 -198 -36 -90 41 -192 135 -179 37
5 60 25 259 224 l218 218 0 455 -1 455 -53 58 c-42 45 -62 59 -92 64 l-38 6
-209 -214z"/>
<path d="M6224 3518 l-65 -65 3 -457 3 -456 205 -206 c113 -113 217 -212 232
-220 52 -27 116 -11 157 42 16 20 21 41 21 82 l0 56 -185 186 -185 186 0 232
c0 128 3 232 7 232 4 0 50 -42 103 -94 74 -74 104 -96 133 -101 79 -15 153 58
144 142 -5 52 -18 67 -254 311 -222 228 -221 228 -319 130z"/>
</g>
<g transform="translate(0.000000,1220.000000) scale(0.100000,-0.100000)"
fill="#F2C200" stroke="none">
<path d="M6050 10603 c-30 -11 -200 -187 -200 -208 0 -23 187 -215 209 -215
23 0 211 191 211 215 0 14 -35 56 -99 118 -54 53 -100 97 -102 96 -2 0 -11 -3
-19 -6z"/>
<path d="M5979 10034 c-38 -37 -71 -76 -75 -87 -5 -15 10 -36 67 -93 41 -41
78 -74 84 -74 12 0 165 145 165 157 0 11 -153 163 -164 163 -4 0 -39 -30 -77
-66z"/>
<path d="M1736 9174 c-12 -31 -7 -339 6 -352 7 -7 40 -12 80 -12 l67 0 3 -102
3 -103 95 -5 95 -5 3 -97 3 -98 99 0 99 0 3 -87 c2 -63 7 -88 16 -87 6 1 82 2
167 3 l155 1 0 235 0 235 -90 0 -89 0 -3 93 -3 92 -110 5 -110 5 -5 80 -5 80
-120 5 -120 5 -1 60 -1 60 -115 3 c-99 2 -117 0 -122 -14z"/>
<path d="M10213 9094 c-8 -4 -13 -26 -13 -60 l0 -54 -135 0 -135 0 0 -90 0
-89 -92 -3 -93 -3 -3 -97 -3 -97 -77 -3 -77 -3 0 -225 0 -225 147 -3 147 -3 3
83 3 83 98 3 97 3 0 94 0 94 93 3 92 3 3 102 3 102 82 3 82 3 0 190 0 190
-105 2 c-58 1 -111 -1 -117 -3z"/>
<path d="M3810 8945 l0 -75 -90 0 -90 0 0 -100 0 -100 -75 0 -74 0 -3 -97 -3
-98 -75 -1 -75 -2 -1 -123 c-1 -68 -3 -160 -4 -204 -1 -44 -2 -86 -1 -93 1
-10 28 -12 114 -10 l112 3 5 90 5 90 88 3 87 3 1 77 c1 42 1 85 0 94 -2 15 10
18 81 20 l83 3 5 110 5 110 55 5 55 5 3 183 2 182 -105 0 -105 0 0 -75z"/>
<path d="M8154 9007 c-2 -7 -3 -89 -2 -182 l3 -170 60 -5 60 -5 5 -110 5 -110
82 -3 82 -3 3 -92 3 -92 115 -5 115 -5 3 -92 3 -91 137 -4 c75 -2 143 -2 150
0 8 3 12 31 12 93 l0 88 -52 3 -53 3 -3 123 c-2 87 -6 122 -15 123 -7 0 -43 1
-82 2 l-70 2 -3 98 -3 97 -79 0 -80 0 0 100 0 99 -87 3 -88 3 -3 73 -3 72
-105 0 c-76 0 -106 -4 -110 -13z"/>
<path d="M5887 7144 c-4 -4 -7 -67 -7 -140 l0 -133 -132 -3 -133 -3 -5 -140
-5 -140 -132 -3 -132 -3 -3 -137 -3 -137 -127 -3 -128 -3 0 -179 0 -179 128
-3 127 -3 3 -137 3 -138 134 0 135 0 0 -140 0 -140 118 -1 c64 -1 124 -2 132
-3 12 -1 16 -26 20 -136 l5 -135 173 -3 172 -2 0 133 0 134 53 7 c28 3 89 6
134 6 l82 0 3 138 3 137 135 5 135 5 3 138 3 137 129 0 130 0 0 180 0 180
-130 0 -130 0 0 140 0 140 -134 0 c-113 0 -135 2 -140 16 -3 9 -6 74 -6 145
l0 129 -135 0 -134 0 -3 138 -3 137 -166 3 c-91 1 -168 -1 -172 -4z m274 -574
c20 -6 41 -20 47 -33 7 -12 13 -71 14 -132 l3 -110 112 -5 c101 -5 114 -7 137
-29 25 -24 26 -29 26 -142 0 -116 -1 -119 -27 -144 -26 -24 -34 -25 -140 -25
l-113 0 0 -123 c0 -83 -4 -129 -13 -140 -11 -16 -30 -17 -162 -15 l-150 3 -3
138 -3 137 -115 0 c-63 0 -124 5 -135 10 -17 10 -19 22 -19 143 0 73 4 137 8
143 24 35 57 44 159 44 l103 0 0 111 0 111 34 34 c33 33 36 34 118 34 45 0 99
-5 119 -10z"/>
<path d="M1833 6258 c-73 -66 -133 -130 -133 -143 0 -6 39 -50 88 -98 64 -64
94 -87 113 -87 19 0 48 23 112 89 48 49 87 93 87 98 0 13 -185 193 -199 193
-6 0 -37 -23 -68 -52z"/>
<path d="M10104 6218 c-52 -50 -94 -97 -94 -103 0 -22 179 -185 203 -185 30 1
198 158 197 186 0 31 -173 194 -206 194 -4 0 -49 -41 -100 -92z"/>
<path d="M2238 6204 c-43 -41 -78 -80 -78 -87 0 -15 151 -167 165 -167 18 0
167 157 163 172 -4 16 -151 158 -164 158 -5 0 -44 -34 -86 -76z"/>
<path d="M9698 6203 c-43 -43 -78 -83 -78 -88 0 -13 152 -165 165 -165 17 0
165 154 165 172 0 16 -140 150 -163 156 -7 1 -47 -33 -89 -75z"/>
<path d="M3305 4191 c-3 -2 -5 -100 -5 -218 l0 -213 85 0 84 0 3 -97 3 -98 77
-3 77 -3 3 -97 c2 -69 7 -97 16 -98 6 -1 46 -2 87 -3 l75 -1 0 -70 0 -71 103
3 102 3 0 180 0 180 -57 3 -57 3 -3 107 -3 107 -84 5 -85 5 -2 95 -2 95 -96 3
-96 3 0 85 c0 59 -4 86 -12 89 -19 6 -208 12 -213 6z"/>
<path d="M8697 4184 c-4 -4 -7 -45 -7 -91 l0 -83 -114 0 c-132 0 -126 7 -126
-122 l0 -78 -85 0 -85 0 0 -110 0 -110 -53 0 c-29 0 -58 -5 -65 -12 -13 -13
-17 -292 -6 -335 6 -22 11 -23 110 -23 l104 0 0 70 0 69 88 3 87 3 3 97 3 97
77 3 77 3 3 98 3 97 84 0 85 0 0 124 0 125 48 3 47 3 0 85 0 85 -136 3 c-74 1
-138 -1 -142 -4z"/>
<path d="M2290 3965 l0 -85 -100 0 -99 0 -3 -97 -3 -98 -97 -3 -98 -3 0 -104
0 -104 -77 -3 -78 -3 0 -180 0 -180 118 -3 117 -3 1 43 c1 24 2 50 3 58 1 12
23 16 122 18 l121 3 7 52 c3 29 6 69 6 90 l0 37 105 0 105 0 2 53 c1 28 2 72
3 97 l0 45 90 5 90 5 0 220 0 220 -167 3 -168 2 0 -85z"/>
<path d="M9587 4043 c-4 -3 -7 -104 -7 -224 l0 -218 82 -3 82 -3 -3 -48 c-1
-27 0 -71 4 -98 l7 -48 91 -3 92 -3 1 -30 c0 -16 1 -56 2 -87 l2 -58 130 0
129 0 3 -57 3 -58 115 0 115 0 3 182 2 182 -82 3 -83 3 -5 104 -5 105 -90 0
-90 1 -3 98 -3 97 -99 0 -100 0 0 85 0 85 -143 0 c-79 0 -147 -3 -150 -7z"/>
<path d="M5972 2377 c-39 -40 -72 -80 -72 -88 0 -9 36 -49 80 -89 l80 -72 80
78 c44 43 80 82 80 87 0 13 -149 157 -163 157 -7 0 -45 -33 -85 -73z"/>
<path d="M5949 1973 c-64 -62 -99 -104 -99 -118 0 -27 179 -205 206 -205 26 0
204 179 204 206 0 19 -187 214 -205 214 -4 0 -52 -44 -106 -97z"/>
</g>
<g transform="translate(0.000000,1220.000000) scale(0.100000,-0.100000)"
fill="#F0502E" stroke="none">
<path d="M8980 10704 c-140 -83 -130 -67 -130 -210 l0 -124 41 -30 c69 -49
166 -100 192 -100 24 0 204 102 219 125 4 5 8 64 8 131 0 113 -1 122 -22 140
-31 27 -195 124 -210 124 -2 0 -46 -25 -98 -56z"/>
<path d="M9690 10753 c-8 -3 -58 -32 -111 -65 l-96 -58 -5 -53 c-2 -28 -2 -90
1 -136 l6 -85 95 -58 c61 -36 106 -57 125 -57 19 0 66 22 125 58 l95 58 3 135
3 136 -110 66 c-60 36 -110 66 -112 65 -2 0 -11 -3 -19 -6z"/>
<path d="M2703 10657 l-103 -62 0 -132 0 -132 101 -60 c56 -34 112 -61 125
-61 19 0 176 83 212 112 8 7 12 49 12 144 l0 133 -102 60 c-57 33 -112 61
-123 60 -11 0 -66 -28 -122 -62z"/>
<path d="M3323 10659 c-63 -36 -103 -67 -104 -77 -1 -9 -1 -69 0 -132 2 -95 5
-117 19 -128 48 -37 186 -112 207 -112 22 0 167 82 208 118 14 13 17 34 17
142 l0 126 -104 62 c-57 34 -113 62 -123 62 -10 0 -64 -28 -120 -61z"/>
<path d="M8760 10212 c-21 -6 -181 -102 -202 -120 -15 -13 -18 -33 -18 -137 0
-104 3 -124 18 -137 35 -31 193 -118 213 -118 20 0 174 86 212 118 14 13 17
34 17 143 l0 128 -97 58 c-111 67 -122 72 -143 65z"/>
<path d="M9280 10159 c-127 -76 -120 -64 -120 -196 0 -63 4 -123 10 -133 12
-23 194 -130 221 -130 21 0 139 64 197 107 l32 24 0 129 0 129 -101 60 c-57
34 -113 61 -128 61 -14 -1 -64 -23 -111 -51z"/>
<path d="M9900 10159 c-128 -76 -120 -63 -120 -204 0 -104 3 -124 18 -137 38
-33 191 -118 213 -118 22 0 207 104 221 124 4 6 8 68 8 137 l0 126 -101 61
c-58 35 -113 62 -128 62 -14 -1 -64 -23 -111 -51z"/>
<path d="M2501 10189 c-13 -5 -66 -34 -117 -65 l-95 -55 3 -132 3 -131 105
-63 c58 -34 110 -62 117 -63 6 0 59 28 116 63 121 71 118 65 116 221 -1 69 -5
101 -15 111 -14 13 -199 126 -206 124 -2 0 -14 -5 -27 -10z"/>
<path d="M3098 10182 c-18 -10 -67 -37 -109 -61 l-77 -44 -5 -71 c-6 -72 -3
-193 4 -200 26 -21 210 -126 221 -126 9 0 62 29 119 63 l104 64 0 133 0 134
-90 54 c-120 72 -126 74 -167 54z"/>
<path d="M3684 10169 c-32 -18 -83 -47 -112 -65 l-53 -34 3 -132 3 -132 105
-63 c57 -35 110 -63 116 -63 7 0 59 28 116 63 l103 63 0 134 0 134 -105 63
c-57 35 -107 63 -111 63 -3 0 -33 -14 -65 -31z"/>
<path d="M8970 9630 c-57 -34 -108 -66 -112 -73 -9 -14 -11 -212 -2 -243 4
-14 39 -41 96 -75 49 -29 92 -57 94 -61 13 -20 60 -3 155 55 l104 64 3 124 c1
68 -1 129 -5 135 -9 14 -207 134 -220 134 -4 0 -55 -27 -113 -60z"/>
<path d="M9647 9661 c-29 -15 -78 -44 -109 -63 -67 -43 -73 -63 -63 -208 l7
-97 103 -61 c57 -34 110 -62 118 -62 8 0 61 29 118 63 l104 64 3 131 3 130
-98 59 c-54 32 -106 61 -115 65 -11 5 -37 -3 -71 -21z"/>
<path d="M2703 9610 l-103 -60 0 -134 0 -134 105 -61 c57 -34 112 -61 120 -61
15 0 134 68 198 112 27 19 27 19 27 143 l0 124 -32 24 c-62 45 -174 107 -194
107 -10 0 -65 -27 -121 -60z"/>
<path d="M3329 9617 c-130 -78 -120 -61 -117 -206 l3 -125 100 -62 c93 -58
146 -76 159 -55 3 4 46 31 95 60 49 28 92 58 95 67 3 9 6 65 6 125 0 101 -2
111 -22 131 -37 34 -189 118 -212 117 -12 0 -60 -24 -107 -52z"/>
<path d="M2683 3110 l-103 -60 0 -130 0 -129 28 -19 c54 -39 184 -112 198
-112 8 0 62 28 120 61 l105 62 -3 135 -3 136 -95 57 c-52 32 -106 58 -120 59
-14 0 -71 -27 -127 -60z"/>
<path d="M3365 3152 c-16 -10 -59 -36 -95 -57 -36 -21 -68 -43 -72 -49 -4 -6
-8 -66 -8 -133 0 -140 -12 -121 133 -207 76 -44 119 -56 132 -37 3 6 45 33 94
61 49 27 92 57 95 66 3 9 6 66 6 128 0 130 9 117 -122 194 -94 56 -117 61
-163 34z"/>
<path d="M8916 3111 c-55 -33 -103 -66 -108 -75 -5 -8 -7 -68 -6 -133 l3 -118
100 -62 c55 -34 112 -62 127 -62 17 -1 66 23 128 60 l100 62 0 126 c0 69 -4
131 -8 137 -13 19 -197 124 -217 124 -11 -1 -65 -27 -119 -59z"/>
<path d="M9530 3108 l-105 -63 -3 -132 -3 -131 110 -66 c60 -36 112 -66 117
-66 10 0 162 88 202 117 l32 24 0 119 c0 90 -3 122 -14 133 -22 22 -202 127
-217 127 -8 0 -61 -28 -119 -62z"/>
<path d="M2390 2586 l-105 -64 0 -133 0 -133 105 -63 c58 -35 110 -63 115 -63
6 0 57 28 115 63 l105 62 0 135 0 135 -105 62 c-58 35 -109 63 -115 63 -5 0
-57 -29 -115 -64z"/>
<path d="M3000 2587 l-105 -62 -3 -133 -3 -132 63 -40 c35 -22 86 -52 114 -67
l51 -26 109 64 109 65 0 134 0 134 -105 63 c-58 34 -109 62 -115 63 -5 0 -57
-28 -115 -63z"/>
<path d="M3610 2590 c-57 -34 -108 -66 -112 -73 -10 -15 -10 -238 0 -254 8
-13 185 -120 214 -129 12 -4 50 14 109 50 50 31 95 56 100 56 20 0 29 46 29
152 0 62 -4 118 -8 124 -7 11 -211 134 -222 134 -3 0 -52 -27 -110 -60z"/>
<path d="M8690 2621 c-19 -10 -69 -38 -110 -63 l-75 -44 0 -134 0 -134 105
-63 c57 -35 111 -63 118 -63 22 0 203 112 217 134 13 22 20 190 10 235 -5 20
-30 40 -101 83 -53 31 -103 60 -112 62 -10 3 -33 -2 -52 -13z"/>
<path d="M9310 2626 c-66 -35 -186 -109 -192 -119 -13 -21 -9 -242 5 -259 15
-20 200 -128 219 -128 7 0 59 27 116 61 68 40 104 67 107 82 3 12 4 74 3 137
l-3 114 -97 57 c-117 69 -126 72 -158 55z"/>
<path d="M9840 2580 c-57 -33 -108 -66 -112 -73 -4 -6 -8 -65 -8 -129 0 -101
3 -121 18 -136 22 -22 195 -122 211 -122 13 0 99 47 179 97 l52 34 0 124 0
124 -32 24 c-32 24 -191 117 -199 117 -2 0 -51 -27 -109 -60z"/>
<path d="M2725 2088 c-38 -22 -87 -51 -107 -64 l-38 -24 0 -116 c0 -63 4 -123
10 -133 13 -25 190 -131 218 -131 12 0 67 28 122 61 l100 62 0 127 c0 108 -3
129 -17 142 -25 21 -197 118 -208 118 -6 -1 -41 -19 -80 -42z"/>
<path d="M3380 2112 c-75 -39 -156 -86 -172 -100 -15 -13 -18 -33 -18 -138 l0
-123 33 -24 c57 -43 175 -107 196 -107 17 0 193 98 213 118 6 7 13 154 10 227
l-2 41 -108 62 c-59 34 -110 62 -113 62 -3 0 -20 -8 -39 -18z"/>
<path d="M8915 2048 c-55 -33 -103 -66 -107 -72 -4 -6 -8 -63 -8 -127 0 -98 3
-118 18 -131 38 -33 194 -118 217 -118 23 0 201 102 218 125 4 5 6 66 5 135
l-3 125 -104 63 c-57 34 -111 62 -120 61 -9 0 -61 -27 -116 -61z"/>
<path d="M9536 2054 c-49 -29 -95 -59 -102 -65 -11 -9 -14 -44 -14 -139 l0
-129 97 -60 c55 -34 109 -61 123 -61 15 0 72 27 128 61 l102 61 0 127 c0 109
-3 130 -17 143 -30 26 -198 118 -213 117 -8 0 -55 -25 -104 -55z"/>
</g>
</g>
</svg>